<?xml version="1.0" encoding="UTF-8"?>
<svg xmlns="http://www.w3.org/2000/svg" xmlns:xlink="http://www.w3.org/1999/xlink" width="1586" height="1400" viewBox="0 0 1586 1400" role="img" aria-labelledby="svg-title svg-desc">
  <title id="svg-title">policies-lan — Loom control center</title>
  <desc id="svg-desc">Loom control center: policies-lan.</desc>
  <defs>
    <marker id="route-arrow" markerWidth="8" markerHeight="8" refX="7" refY="4" orient="auto" markerUnits="strokeWidth"><path d="M0 0L8 4L0 8Z" fill="#4D78D1"/></marker>
    <symbol id="icon-grid" viewBox="0 0 16 16"><rect x="1.5" y="1.5" width="5" height="5" rx="1"/><rect x="9.5" y="1.5" width="5" height="5" rx="1"/><rect x="1.5" y="9.5" width="5" height="5" rx="1"/><rect x="9.5" y="9.5" width="5" height="5" rx="1"/></symbol>
    <symbol id="icon-node" viewBox="0 0 16 16"><rect x="2" y="2" width="12" height="5" rx="1"/><rect x="2" y="9" width="12" height="5" rx="1"/><circle cx="4" cy="4.5" r=".6"/><circle cx="4" cy="11.5" r=".6"/></symbol>
    <symbol id="icon-topology" viewBox="0 0 16 16"><path d="M4 4l4 4 4-4M8 8v4"/><circle cx="3" cy="3" r="1.7"/><circle cx="13" cy="3" r="1.7"/><circle cx="8" cy="13" r="1.7"/></symbol>
    <symbol id="icon-path" viewBox="0 0 16 16"><path d="M2 4h4c3 0 2 8 5 8h3M2 12h3c3 0 2-8 5-8h4"/></symbol>
    <symbol id="icon-service" viewBox="0 0 16 16"><rect x="2" y="2" width="12" height="12" rx="2"/><path d="M5 5h6M5 8h6M5 11h4"/></symbol>
    <symbol id="icon-release" viewBox="0 0 16 16"><rect x="2" y="3" width="12" height="10" rx="2"/><path d="M8 5v5m-2-2 2 2 2-2"/></symbol>
    <symbol id="icon-events" viewBox="0 0 16 16"><circle cx="8" cy="8" r="6"/><path d="M8 4v4l2.5 1.5"/></symbol>
    <symbol id="icon-signed" viewBox="0 0 16 16"><path d="M8 1.5 13 4v4c0 3-2 5-5 6.5C5 13 3 11 3 8V4Z"/><path d="m5.5 8 1.6 1.6 3.4-3.5"/></symbol>
    <symbol id="icon-lock" viewBox="0 0 16 16"><rect x="3" y="7" width="10" height="7" rx="1.5"/><path d="M5.2 7V5a2.8 2.8 0 0 1 5.6 0v2"/></symbol>
    <symbol id="icon-search" viewBox="0 0 16 16"><circle cx="7" cy="7" r="4.5"/><path d="m10.5 10.5 3 3"/></symbol>
    <symbol id="icon-terminal" viewBox="0 0 16 16"><rect x="1.5" y="2" width="13" height="12" rx="2"/><path d="m4 5 3 3-3 3m5 0h3"/></symbol>
    <symbol id="icon-code" viewBox="0 0 16 16"><path d="m5.5 3-4 5 4 5m5-10 4 5-4 5M9.5 2l-3 12"/></symbol>
    <symbol id="icon-qr" viewBox="0 0 16 16"><path d="M2 2h4v4H2zm8 0h4v4h-4zM2 10h4v4H2zm8 0v2m3-2v4m-3 0h2"/></symbol>
    <symbol id="icon-phone" viewBox="0 0 16 16"><rect x="4" y="1" width="8" height="14" rx="2"/><path d="M7 3h2M7 13h2"/></symbol>
    <symbol id="icon-globe" viewBox="0 0 16 16"><circle cx="8" cy="8" r="6"/><ellipse cx="8" cy="8" rx="2.5" ry="6"/><path d="M2 8h12"/></symbol>
    <symbol id="icon-expand" viewBox="0 0 16 16"><path d="M6 2H2v4m8-4h4v4M2 10v4h4m8-4v4h-4"/></symbol>
    <symbol id="icon-chevron" viewBox="0 0 16 16"><path d="m4 6 4 4 4-4"/></symbol>
    <symbol id="icon-filter" viewBox="0 0 16 16"><path d="M2 4h12M4 8h8m-6 4h4"/></symbol>
    <style><![CDATA[
    .ui { font-family: Inter, "Atkinson Hyperlegible Next", ui-sans-serif, system-ui, -apple-system, "Segoe UI", sans-serif; fill:#1B201D }
    .mono { font-family: "Intel One Mono", "SFMono-Regular", Consolas, monospace }
    .title { font-size:28px; font-weight:700; letter-spacing:-.5px }
    .section { font-size:17px; font-weight:650; letter-spacing:-.2px }
    .metric { font-size:22px; font-weight:650; letter-spacing:-.3px }
    .body { font-size:14px }
    .small { font-size:12px }
    .tiny { font-size:11px }
    .micro { font-size:10px }
    .eyebrow { font-size:11px; font-weight:700; letter-spacing:1px }
    .muted { fill:#6E7771 }
    .faint { fill:#929B95 }
    .green { fill:#218A61 }
    .amber { fill:#A66A14 }
    .red { fill:#B74E4E }
    .blue { fill:#427994 }
    .white { fill:#FFFFFF }
    .nav { font-size:13px }
    .nav-icon { fill:none; stroke:#79837D; stroke-width:1.45; stroke-linecap:round; stroke-linejoin:round }
    .nav-active { fill:none; stroke:#1B201D; stroke-width:1.6; stroke-linecap:round; stroke-linejoin:round }
    .rule { stroke:#E5EAE6; stroke-width:1 }
    .dash { stroke:#ABB7AF; stroke-width:1.5; stroke-dasharray:5 5; fill:none }
    .link { stroke:#B8C4BC; stroke-width:2; fill:none }
    .selected { stroke:#4D78D1; stroke-width:2.3; fill:none; marker-end:url(#route-arrow) }
]]></style>
  </defs>
  <rect width="1586" height="1400" fill="#FCFDFC"/>
  <rect x="0" y="0" width="1586" height="58" fill="#FFFFFF"/>
  <line class="rule" x1="0" y1="57" x2="1586" y2="57"/>
  <svg x="18" y="8" width="39" height="39" viewBox="127 112 1000 1000"><g transform="translate(0.000000,1254.000000) scale(1.000000,-1.000000)"><path d="M616 1108 c-67 -49 -118 -133 -129 -209 0 -6 0 -6 -14 -1 -75 27 -166 24 -239 -6 -13 -5 -14 -7 -11 -29 12 -80 53 -155 115 -211 l9 -8 -6 -5 c-61 -53 -100 -121 -114 -200 -5 -31 -5 -38 4 -42 57 -26 138 -34 203 -20 13 2 22 5 39 10 14 5 14 5 15 -2 9 -70 60 -155 121 -204 17 -15 18 -15 34 -2 47 37 87 93 107 151 7 20 16 52 16 60 0 4 1 4 12 0 72 -28 158 -27 236 3 17 6 17 7 15 27 -8 79 -49 159 -111 215 l-9 9 10 9 c61 53 105 139 114 219 2 15 1 16 -28 26 -75 25 -156 25 -227 -2 -4 -1 -8 -2 -8 -2 -1 0 -2 7 -3 15 -15 81 -60 152 -126 198 -12 9 -14 9 -25 1z M639 1084 c105 -82 142 -225 92 -356 -7 -18 -7 -17 -16 -17 -4 0 -8 1 -8 1 -1 1 1 7 4 15 32 78 30 170 -5 243 -16 35 -40 66 -68 88 -9 8 -11 8 -20 0 -47 -39 -82 -103 -93 -169 -1 -7 -2 -12 -2 -13 -1 0 -17 8 -17 9 -1 1 4 27 7 40 13 44 37 89 68 124 15 16 44 43 47 43 0 0 5 -3 11 -8z M638 1031 c77 -72 98 -200 50 -307 -3 -8 -5 -11 -7 -12 -2 -1 -17 -1 -18 0 -1 0 2 6 5 12 44 94 31 213 -31 278 -10 11 -12 10 -29 -12 -26 -36 -44 -83 -47 -128 0 -6 -1 -11 -1 -11 -1 0 -6 4 -16 11 -4 3 2 39 12 67 13 41 41 84 68 108 4 4 3 4 14 -6z M635 973 c24 -33 37 -74 40 -124 l0 -15 -10 -10 c-11 -11 -23 -25 -32 -38 -6 -8 -5 -9 -13 3 -9 13 -19 24 -30 36 l-10 10 0 13 c3 48 18 94 42 128 6 7 6 7 13 -3z M413 893 c79 -13 148 -56 193 -118 12 -17 11 -15 6 -26 -3 -6 -5 -10 -5 -10 0 0 -4 6 -9 13 -66 103 -190 147 -314 114 -20 -6 -21 -6 -14 -34 15 -60 54 -120 102 -158 9 -8 9 -7 0 -12 -9 -6 -8 -6 -18 2 -57 48 -97 120 -110 196 -2 14 -3 13 7 16 22 9 53 16 85 19 13 2 61 0 77 -2z M923 895 c30 -3 83 -16 89 -22 2 -2 -7 -43 -14 -64 -34 -100 -109 -176 -200 -203 -23 -7 -59 -13 -61 -11 -2 2 -8 16 -8 16 0 1 7 2 16 2 74 9 136 45 185 108 27 35 49 81 57 120 4 17 3 19 -13 24 -62 19 -135 15 -193 -9 -9 -4 -9 -5 -9 7 l0 10 9 3 c25 10 56 17 83 19 9 1 50 1 59 0z M400 854 c70 -9 134 -47 176 -104 7 -11 21 -34 21 -36 0 -2 -6 -24 -7 -25 0 -1 -4 5 -8 13 -38 76 -106 124 -190 134 -14 2 -49 1 -62 -1 -16 -3 -18 -5 -12 -21 14 -42 48 -88 87 -117 7 -5 13 -10 13 -10 0 -1 -17 -9 -18 -9 -5 0 -42 35 -56 52 -24 29 -46 72 -54 105 -3 11 -3 10 11 14 30 8 67 10 99 5z M926 854 c13 -1 39 -7 40 -9 2 -2 -8 -34 -17 -55 -43 -93 -125 -152 -220 -158 l-11 0 -6 9 c-3 5 -5 9 -5 9 0 1 8 1 18 1 56 0 107 23 153 69 29 29 59 79 63 104 1 10 -11 13 -53 12 -42 0 -71 -6 -107 -24 -12 -6 -11 -6 -10 5 1 4 1 9 1 10 0 3 1 3 13 8 45 19 93 26 141 19z M391 816 c30 -3 68 -16 91 -32 l6 -3 4 -15 c4 -16 10 -34 16 -47 4 -11 4 -11 -3 -11 -12 -2 -37 -6 -48 -9 -16 -4 -14 -4 -26 4 -38 25 -67 57 -86 96 -7 15 -7 16 0 17 10 1 36 1 46 0z M914 816 c3 -2 2 -5 -4 -18 -19 -39 -53 -75 -89 -97 l-8 -5 -11 3 c-15 4 -33 8 -45 9 -6 1 -11 2 -11 2 -1 0 1 7 4 14 6 17 12 36 15 48 l1 9 9 5 c27 15 55 25 85 30 10 1 51 1 54 0z M669 789 c-4 -19 -7 -27 -14 -39 -10 -18 -20 -39 -29 -64 -1 -4 -2 -5 -10 -9 -9 -5 -9 -5 -5 11 10 40 28 75 51 103 10 12 10 12 7 -2z M529 746 c14 -16 17 -20 25 -37 8 -17 22 -42 30 -54 5 -9 6 -24 1 -26 -7 -2 -13 5 -35 46 -15 28 -35 75 -35 83 0 2 7 -4 14 -12z M721 691 c25 -1 43 -3 61 -8 4 0 2 -2 -8 -5 -19 -6 -28 -7 -48 -6 -12 1 -29 1 -46 1 -36 -1 -37 -1 -33 11 2 7 1 6 24 7 12 0 23 1 26 1 2 0 13 0 24 -1z M525 681 c5 -10 5 -10 -7 -10 -120 -9 -223 -101 -248 -221 -4 -22 -4 -23 11 -28 61 -19 132 -16 192 7 5 2 9 3 10 3 0 0 0 -5 0 -10 l1 -9 -9 -4 c-62 -24 -145 -25 -216 -1 -17 5 -16 4 -14 15 15 104 74 190 160 235 34 17 63 25 108 30 8 1 7 2 12 -7z M638 655 l9 -4 0 -10 c1 -13 2 -12 -10 -19 l-9 -6 -10 6 -9 6 -1 11 0 11 9 5 c12 6 11 6 21 0z M683 651 c0 -1 6 -10 12 -21 18 -30 29 -54 39 -82 6 -19 6 -19 -4 -9 -16 16 -22 25 -30 42 -7 14 -25 48 -30 54 -2 3 -3 15 -1 16 1 2 13 1 14 0z M546 642 c3 -5 5 -9 5 -9 0 -1 -7 -1 -16 -1 -94 0 -185 -66 -216 -155 -7 -22 -6 -23 23 -27 44 -5 89 3 131 21 7 3 13 6 13 6 0 -1 -1 -5 -1 -11 l-1 -11 -11 -5 c-53 -22 -115 -26 -174 -12 -11 3 -10 3 -9 10 8 39 30 82 58 115 44 53 119 88 184 88 l9 0 5 -9z M902 622 c45 -39 79 -92 96 -151 5 -19 10 -43 10 -51 l1 -7 -14 -5 c-89 -30 -180 -22 -253 22 -40 25 -68 49 -93 83 l-7 10 4 7 c7 13 6 12 12 3 73 -104 198 -148 317 -110 12 4 13 4 8 27 -9 42 -31 88 -59 123 -8 10 -33 35 -42 41 -6 5 -6 5 2 11 9 6 8 6 18 -3z M542 610 c10 -1 27 -1 38 -1 l20 0 8 -5 c4 -2 8 -4 8 -5 0 0 -1 -2 -2 -4 l-1 -4 -43 0 c-45 1 -55 2 -81 7 -8 1 -14 3 -15 3 0 1 15 6 27 8 15 3 15 3 20 2 2 0 11 0 21 -1z M661 609 c5 -9 -53 -107 -73 -125 -3 -3 -3 0 1 14 4 17 8 26 14 37 12 18 31 52 34 60 1 2 4 5 11 10 11 7 11 7 13 4z M863 604 c48 -36 83 -90 98 -148 2 -7 3 -14 3 -14 -1 -1 -5 -3 -11 -4 -90 -23 -180 3 -247 69 -17 18 -42 51 -42 56 0 2 9 20 10 20 0 0 3 -4 5 -8 36 -66 102 -112 177 -124 12 -2 51 -2 64 0 19 4 21 5 17 17 -15 50 -55 103 -97 128 -1 1 -2 2 -2 2 0 1 17 10 19 10 0 0 3 -2 6 -4z M458 585 c12 -4 37 -9 48 -11 8 0 7 0 3 -10 -5 -13 -13 -36 -16 -49 -3 -13 -2 -12 -19 -21 -38 -19 -72 -26 -112 -25 -22 1 -23 1 -23 5 3 13 23 45 41 67 16 18 58 49 64 48 1 -1 7 -2 14 -4z M824 583 c35 -22 63 -53 81 -89 6 -12 11 -22 10 -23 -4 -3 -47 -2 -68 2 -26 5 -69 24 -82 35 0 1 -2 8 -4 17 -2 9 -6 23 -10 32 -6 19 -6 18 1 19 14 1 57 11 59 13 1 1 4 0 13 -6z M553 570 c1 -1 1 -2 -2 -7 -11 -21 -21 -55 -26 -82 -15 -86 17 -180 82 -245 20 -20 19 -20 40 0 44 45 71 101 82 165 1 6 2 11 2 11 0 1 4 -1 9 -4 l8 -4 0 -5 c-11 -74 -51 -146 -110 -198 -12 -10 -10 -10 -21 -1 -77 65 -122 167 -113 259 3 34 14 74 26 103 l4 9 9 0 c5 0 9 0 10 -1z M597 570 c0 -1 -4 -9 -8 -18 -43 -88 -35 -184 20 -258 15 -20 17 -21 27 -10 30 33 52 90 57 145 0 11 0 11 10 3 10 -7 9 -6 7 -19 -7 -62 -34 -117 -76 -161 l-7 -7 -8 8 c-51 50 -82 131 -77 200 3 35 12 70 28 103 l7 14 10 0 c5 0 10 0 10 0z M639 493 c5 -6 14 -17 22 -24 l13 -14 0 -8 c0 -44 -14 -93 -38 -130 -9 -14 -9 -14 -13 -8 -26 35 -42 84 -42 127 l0 11 12 12 c11 12 22 25 31 38 3 4 6 7 6 7 0 0 4 -5 9 -11z" fill="#252927" fill-rule="evenodd" clip-rule="evenodd"/></g></svg>
  <text class="ui section" x="65" y="36" text-anchor="start">LOOM</text>
  <use href="#icon-grid" x="230" y="20" width="15" height="15" class="nav-icon"/>
  <text class="ui nav muted" x="251" y="34" text-anchor="start">Overview</text>
  <use href="#icon-node" x="344" y="20" width="15" height="15" class="nav-icon"/>
  <text class="ui nav muted" x="365" y="34" text-anchor="start">Nodes</text>
  <use href="#icon-topology" x="438" y="20" width="15" height="15" class="nav-icon"/>
  <text class="ui nav muted" x="459" y="34" text-anchor="start">Topology</text>
  <use href="#icon-path" x="552" y="20" width="15" height="15" class="nav-icon"/>
  <text class="ui nav muted" x="573" y="34" text-anchor="start">Live paths</text>
  <use href="#icon-service" x="681" y="20" width="15" height="15" class="nav-icon"/>
  <text class="ui nav muted" x="702" y="34" text-anchor="start">Services</text>
  <use href="#icon-service" x="789" y="20" width="15" height="15" class="nav-active"/>
  <text class="ui nav" x="810" y="34" text-anchor="start">Policies</text>
  <line x1="789" y1="57" x2="863" y2="57" stroke="#2AA875" stroke-width="2"/>
  <use href="#icon-release" x="894" y="20" width="15" height="15" class="nav-icon"/>
  <text class="ui nav muted" x="915" y="34" text-anchor="start">Releases</text>
  <use href="#icon-events" x="1002" y="20" width="15" height="15" class="nav-icon"/>
  <text class="ui nav muted" x="1023" y="34" text-anchor="start">Events</text>
  <a href="09-administration.svg" data-ui="administration-entry">
  <use href="#icon-signed" x="1095" y="20" width="15" height="15" class="nav-icon"/>
  <text class="ui nav muted" x="1116" y="34" text-anchor="start">Administration</text>
  </a>
  <use href="#icon-node" x="1285" y="22" width="14" height="14" class="nav-icon"/>
  <text class="ui small muted" x="1307" y="34" text-anchor="start">control-a</text>
  <use href="#icon-lock" x="1450" y="20" width="14" height="14" class="nav-icon"/>
  <text class="ui small muted" x="1470" y="34" text-anchor="start">Admin view</text>
  <text class="ui eyebrow green" x="24" y="97" text-anchor="start">NETWORK INTENT</text>
  <text class="ui title" x="24" y="134" text-anchor="start">Access policies</text>
  <text class="ui body muted" x="24" y="162" text-anchor="start">A policy defines access to one service. Assign the same policy to any devices that need these rules.</text>
  <g data-ui="navigation" data-route="/policies?new=1">
  <g data-ui="button">
  <rect x="1382" y="106" width="180" height="34" rx="6" fill="#248F64" stroke="#248F64"/>
  <text class="ui small white" x="1472" y="127" text-anchor="middle">+ New policy</text>
  </g>
  </g>
  <g data-ui="catalog-list">
  <text class="ui section" x="24" y="228" text-anchor="start">Saved policies</text>
  <text class="ui small muted" x="360" y="228" text-anchor="end">3</text>
  <rect x="24" y="248" width="336" height="38" rx="5" fill="#F8FAF8" stroke="#E1E7E2"/>
  <use href="#icon-search" x="35" y="259" width="15" height="15" class="nav-icon"/>
  <text class="ui small muted" x="59" y="272" text-anchor="start">Search policy or service</text>
  <g data-ui="catalog-item" data-object="demo-policy" aria-selected="false">
  <text class="ui body mono" x="42" y="332" text-anchor="start">media-access</text>
  <text class="ui small muted" x="42" y="356" text-anchor="start">media · internet</text>
  <text class="ui tiny muted" x="42" y="378" text-anchor="start">1 device · Direct or internet-exit</text>
  <text class="ui body muted" x="344" y="334" text-anchor="end">›</text>
  <line class="rule" x1="24" y1="396" x2="360" y2="396"/>
  </g>
  <g data-ui="catalog-item" data-object="demo-direct-policy" aria-selected="false">
  <text class="ui body mono" x="42" y="424" text-anchor="start">direct-access</text>
  <text class="ui small muted" x="42" y="448" text-anchor="start">media · internet</text>
  <text class="ui tiny muted" x="42" y="470" text-anchor="start">0 devices · Direct only</text>
  <text class="ui body muted" x="344" y="426" text-anchor="end">›</text>
  <line class="rule" x1="24" y1="488" x2="360" y2="488"/>
  </g>
  <g data-ui="catalog-item" data-object="demo-lan-policy" aria-selected="true">
  <rect x="24" y="488" width="336" height="92" rx="4" fill="#EDF4FB" stroke="none"/>
  <rect x="24" y="498" width="3" height="72" rx="0" fill="#4D78D1" stroke="none"/>
  <text class="ui body mono" x="42" y="516" text-anchor="start">office-lan</text>
  <text class="ui small muted" x="42" y="540" text-anchor="start">office-network · shared LAN</text>
  <text class="ui tiny muted" x="42" y="562" text-anchor="start">0 devices · fixed gateway</text>
  <text class="ui body muted" x="344" y="518" text-anchor="end">›</text>
  <line class="rule" x1="24" y1="580" x2="360" y2="580"/>
  </g>
  </g>
  <text class="ui small muted" x="24" y="628" text-anchor="start">One service can have several policies.</text>
  <text class="ui small muted" x="24" y="655" text-anchor="start">Each device chooses one per service.</text>
  <text class="ui small green" x="24" y="697" text-anchor="start">Assign policies from device details →</text>
  <g data-ui="policy-editor" data-policy="demo-lan-policy" data-service="demo-office" data-state="shared-edit">
  <text class="ui section mono" x="446" y="228" text-anchor="start">office-lan</text>
  <text class="ui small amber" x="820" y="228" text-anchor="start">Unsaved changes · entry nodes</text>
  <g data-ui="navigation" data-route="/policies?copy=demo-lan-policy">
  <text class="ui small green" x="1514" y="228" text-anchor="end">Copy as new policy →</text>
  </g>
  <text class="ui body" x="446" y="273" text-anchor="start">Service</text>
  <g data-ui="policy-service" data-service="demo-office" aria-readonly="true">
  <text class="ui body mono" x="746" y="273" text-anchor="start">office-network</text>
  <g data-ui="navigation" data-route="/services/demo-office">
  <text class="ui small green" x="1514" y="273" text-anchor="end">View service →</text>
  </g>
  <text class="ui small mono muted" x="446" y="312" text-anchor="start">198.51.100.0/24 · gateway relay-west</text>
  <text class="ui small muted" x="1514" y="340" text-anchor="end">Service cannot be changed</text>
  </g>
  <text class="ui body" x="446" y="375" text-anchor="start">Policy name</text>
  <g data-ui="input">
  <rect x="446" y="390" width="1068" height="42" rx="5" fill="#FFFFFF" stroke="#D8E0DA"/>
  <text class="ui body" x="460" y="417" text-anchor="start">Office LAN access</text>
  </g>
  <line class="rule" x1="446" y1="459" x2="1514" y2="459"/>
  <text class="ui section" x="446" y="496" text-anchor="start">Access to this service</text>
  <g data-ui="policy-effect" data-value="allow" role="radiogroup">
  <g role="radio" data-value="allow" aria-checked="true">
  <circle cx="830" cy="490" r="8" fill="#FFFFFF" stroke="#248F64"/>
  <circle cx="830" cy="490" r="4" fill="#248F64" stroke="none"/>
  <text class="ui body" x="852" y="496" text-anchor="start">Allow</text>
  </g>
  <g role="radio" data-value="deny" aria-checked="false">
  <circle cx="965" cy="490" r="8" fill="#FFFFFF" stroke="#BCC8C0"/>
  <text class="ui body" x="987" y="496" text-anchor="start">Deny</text>
  </g>
  </g>
  <text class="ui small muted" x="446" y="528" text-anchor="start">Deny keeps the policy assigned but blocks access to this service.</text>
  <g data-ui="fixed-lan-gateway" data-node="demo-forward-c" aria-readonly="true">
  <text class="ui body" x="446" y="579" text-anchor="start">Destination gateway</text>
  <text class="ui body mono" x="746" y="579" text-anchor="start">relay-west · fixed by office-network</text>
  </g>
  <g data-ui="policy-range" data-field="data-entries" data-mode="only" data-options="any only none">
  <text class="ui body" x="446" y="639" text-anchor="start">Entry nodes · first hop</text>
  <g data-ui="policy-range-mode" role="radiogroup" aria-label="Entry nodes · first hop">
  <g role="radio" data-value="any" aria-checked="false">
  <circle cx="754" cy="634" r="8" fill="#FFFFFF" stroke="#BCC8C0"/>
  <text class="ui body" x="775" y="639" text-anchor="start">Unrestricted</text>
  </g>
  <g role="radio" data-value="only" aria-checked="true">
  <circle cx="934" cy="634" r="8" fill="#FFFFFF" stroke="#248F64"/>
  <circle cx="934" cy="634" r="4" fill="#248F64" stroke="none"/>
  <text class="ui body green" x="955" y="639" text-anchor="start">Selected nodes</text>
  </g>
  <g role="radio" data-value="none" aria-checked="false">
  <circle cx="1138" cy="634" r="8" fill="#FFFFFF" stroke="#BCC8C0"/>
  <text class="ui body" x="1159" y="639" text-anchor="start">None</text>
  </g>
  </g>
  <g data-ui="policy-node-picker" aria-expanded="true">
  <g data-ui="tag-selector" data-field="data-entries" aria-multiselectable="true">
  <rect x="746" y="655" width="768" height="44" rx="5" fill="#FFFFFF" stroke="#D8E0DA"/>
  <g data-ui="selected-tag" data-value="demo-control-a">
  <rect x="756" y="664" width="97" height="26" rx="4" fill="#EEF3F0" stroke="none"/>
  <text class="ui small" x="765" y="681" text-anchor="start">control-a</text>
  <g data-ui="remove-tag" data-value="demo-control-a">
  <text class="ui body muted" x="841" y="681" text-anchor="middle">×</text>
  </g></g>
  <text class="ui small muted" x="863" y="682" text-anchor="start">Search nodes…</text>
  <use href="#icon-chevron" x="1490" y="670" width="16" height="16" class="nav-icon"/>
  </g>
  <g data-ui="policy-node-options" role="listbox" aria-label="Entry nodes · first hop" aria-multiselectable="true" data-close-on-select="false">
  <rect x="746" y="705" width="768" height="118" rx="5" fill="#FFFFFF" stroke="#D8E0DA"/>
  <text class="ui eyebrow muted" x="763" y="727" text-anchor="start">ELIGIBLE NODES</text>
  <text class="ui small muted" x="1496" y="727" text-anchor="end">1 selected · select one or more</text>
  <g data-ui="policy-node-option" role="option" data-value="demo-control-a" aria-selected="true">
  <rect x="750" y="739" width="760" height="40" rx="3" fill="#F0F7F3" stroke="none"/>
  <rect x="764" y="750" width="17" height="17" rx="3" fill="#248F64" stroke="#248F64"/>
  <text class="ui small white" x="773" y="763" text-anchor="middle">✓</text>
  <text class="ui body" x="793" y="764" text-anchor="start">control-a</text>
  <text class="ui small muted" x="1496" y="764" text-anchor="end">control + forward</text>
  </g>
  <g data-ui="policy-node-option" role="option" data-value="demo-egress-e" aria-selected="false">
  <rect x="764" y="792" width="17" height="17" rx="3" fill="#FFFFFF" stroke="#BCC8C0"/>
  <text class="ui body" x="793" y="806" text-anchor="start">internet-exit</text>
  <text class="ui small muted" x="1496" y="806" text-anchor="end">internet_egress</text>
  </g>
  </g>
  </g>
  <text class="ui small muted" x="746" y="848" text-anchor="start">Select at least one node. Selection order does not define a route.</text>
  </g>
  <g data-ui="policy-range" data-field="forwarding-nodes" data-mode="any" data-options="any only none">
  <text class="ui body" x="446" y="899" text-anchor="start">Intermediate forwarding nodes</text>
  <g data-ui="policy-range-mode" role="radiogroup" aria-label="Intermediate forwarding nodes">
  <g role="radio" data-value="any" aria-checked="true">
  <circle cx="754" cy="894" r="8" fill="#FFFFFF" stroke="#248F64"/>
  <circle cx="754" cy="894" r="4" fill="#248F64" stroke="none"/>
  <text class="ui body green" x="775" y="899" text-anchor="start">Unrestricted</text>
  </g>
  <g role="radio" data-value="only" aria-checked="false">
  <circle cx="934" cy="894" r="8" fill="#FFFFFF" stroke="#BCC8C0"/>
  <text class="ui body" x="955" y="899" text-anchor="start">Selected nodes</text>
  </g>
  <g role="radio" data-value="none" aria-checked="false">
  <circle cx="1138" cy="894" r="8" fill="#FFFFFF" stroke="#BCC8C0"/>
  <text class="ui body" x="1159" y="899" text-anchor="start">None</text>
  </g>
  </g>
  <text class="ui small muted" x="746" y="927" text-anchor="start">All current and future eligible nodes.</text>
  </g>
  <text class="ui small muted" x="446" y="955" text-anchor="start">No entry nodes = no LAN path. No transit nodes may still allow one hop to the gateway.</text>
  <line class="rule" x1="446" y1="986" x2="1514" y2="986"/>
  <text class="ui section" x="446" y="1022" text-anchor="start">Allowed access · draft</text>
  <text class="ui body mono" x="446" y="1057" text-anchor="start">Entry: control-a · Transit: unrestricted · LAN gateway: relay-west</text>
  <text class="ui small muted" x="446" y="1087" text-anchor="start">The device chooses a permitted path to 198.51.100.0/24. The LAN gateway stays fixed.</text>
  <line class="rule" x1="446" y1="1116" x2="1514" y2="1116"/>
  <g data-ui="policy-assignments" data-policy="demo-lan-policy">
  <text class="ui section" x="446" y="1151" text-anchor="start">Used by</text>
  <text class="ui small muted" x="1514" y="1151" text-anchor="end">0 devices · 0 active invitations</text>
  <text class="ui body muted" x="446" y="1187" text-anchor="start">No devices assigned. Select office-lan from a device's access policies.</text>
  <text class="ui small muted" x="446" y="1222" text-anchor="start">Saving updates every reference. To change one device, assign another policy or save a copy.</text>
  </g>
  <g data-ui="form-actions">
  <line class="rule" x1="446" y1="1249" x2="1514" y2="1249"/>
  <text class="ui small muted" x="446" y="1298" text-anchor="start">Changes this policy's rules</text>
  <text class="ui body muted" x="1268" y="1298" text-anchor="end">Discard</text>
  <rect x="1296" y="1271" width="218" height="42" rx="6" fill="#248F64" stroke="#248F64"/>
  <text class="ui body white" x="1405" y="1298" text-anchor="middle">Save shared policy</text>
  </g>
  <text class="ui body red" x="446" y="1357" text-anchor="start">Delete policy</text>
  <text class="ui small muted" x="598" y="1357" text-anchor="start">Removes its access. Devices do not switch to another policy automatically.</text>
  </g>
  <line class="rule" x1="396" y1="208" x2="396" y2="1375"/>
</svg>
